<svg width="200" height="28" viewBox="0 0 200 28" fill="none" xmlns="http://www.w3.org/2000/svg">
<path d="M57.7811 0L34.6683 22.2243H46.2246L69.3374 0H57.7811Z" fill="white"></path>
<path d="M41.8918 7.98683L34.6691 14.9319H19.1403L11.5563 22.2243H0L23.1128 0H34.6691L26.363 7.98683H41.8918Z" fill="white"></path>
<path d="M104.746 22.1501H101.017V13.1104H90.8439V22.1501H87.1154V1.6637H90.8439V10.1399H101.017V1.6637H104.746V22.1501Z" fill="white"></path>
<path d="M107.103 24.5192H108.421C109.953 24.5192 110.592 24.4039 111.297 22.4322L111.47 22.0608L105.744 6.93933H109.566L113.148 17.8483L116.73 6.93933H120.313L114.76 22.1121C113.294 26.0428 112.23 27.08 108.674 27.08H107.089V24.5192H107.103Z" fill="white"></path>
<path d="M124.734 8.98714C125.679 7.48907 127.317 6.61841 129.434 6.61841C133.282 6.61841 136.226 9.70416 136.226 14.5569C136.226 19.448 133.282 22.5209 129.434 22.5209C127.317 22.5209 125.679 21.6503 124.734 20.1522V27.1047H121.231V6.95131H124.734V8.98714ZM132.577 14.544C132.577 11.3559 131.112 9.34564 128.662 9.34564C126.371 9.34564 124.574 11.0358 124.574 14.544C124.574 18.0523 126.371 19.768 128.662 19.768C131.112 19.7809 132.577 17.7706 132.577 14.544Z" fill="white"></path>
<path d="M145.239 19.7184C147.063 19.7184 148.502 19.0141 149.114 17.5928H152.549C151.817 20.0256 149.461 22.5096 145.372 22.5096C140.285 22.5096 137.382 18.7836 137.382 14.4303C137.382 9.84646 140.645 6.60706 145.146 6.60706C149.992 6.60706 153.015 10.397 152.723 15.5058H140.938C141.191 18.3355 143.241 19.7184 145.239 19.7184ZM149.181 13.0475C149.088 10.6787 147.21 9.23187 145.159 9.23187C143.508 9.23187 141.244 10.1666 140.952 13.0475H149.181Z" fill="white"></path>
<path d="M161.138 10.2814C158.927 10.2814 157.676 11.1265 157.676 14.1866V22.1507H154.174V6.95237H157.609V9.6668C158.461 7.97668 159.993 6.95237 161.897 6.92676C162.163 6.92676 162.55 6.95237 162.803 6.97798V10.371C162.23 10.307 161.67 10.2814 161.138 10.2814Z" fill="white"></path>
<path d="M167.463 5.05675H163.96V1.6637H167.463V5.05675ZM167.463 22.1501H163.96V6.95174H167.463V22.1501Z" fill="white"></path>
<path d="M180.273 12.1491C179.979 10.5358 178.515 9.40907 176.597 9.40907C174.428 9.40907 172.456 10.9584 172.456 14.5562C172.456 18.167 174.454 19.7291 176.518 19.7291C178.222 19.7291 179.953 18.9992 180.393 16.9634H183.801C183.095 20.523 179.833 22.5331 176.451 22.5331C171.87 22.5331 168.834 19.1145 168.834 14.5947C168.834 10.0749 171.898 6.63062 176.597 6.63062C180.033 6.63062 183.095 8.78168 183.681 12.1747H180.273V12.1491Z" fill="white"></path>
<path d="M192.497 19.7184C194.322 19.7184 195.759 19.0141 196.372 17.5928H199.808C199.076 20.0256 196.718 22.5096 192.631 22.5096C187.544 22.5096 184.641 18.7836 184.641 14.4303C184.641 9.84646 187.903 6.60706 192.404 6.60706C197.251 6.60706 200.274 10.397 199.98 15.5058H188.197C188.449 18.3355 190.5 19.7184 192.497 19.7184ZM196.438 13.0475C196.345 10.6787 194.468 9.23187 192.418 9.23187C190.766 9.23187 188.503 10.1666 188.209 13.0475H196.438Z" fill="white"></path>
</svg>
