<svg width="1010" height="227" viewBox="0 0 1010 227" fill="none" xmlns="http://www.w3.org/2000/svg">
<g clip-path="url(#clip0_700_17615)">
<path d="M0 91.8708C0 39.892 38.8689 3.36719 83.3371 3.36719C106.248 3.36719 124.228 6.50143 135.007 12.7854C136.127 13.4526 135.458 36.3078 134.556 36.3078H133.654C117.478 19.9539 105.579 11.6528 84.2393 11.6528C49.1966 11.6528 28.9767 43.2435 28.9767 88.7366C28.9767 134.23 48.5122 168.955 86.2612 168.955C108.052 168.955 121.755 156.185 135.007 141.398H135.909C136.578 141.398 137.029 164.92 135.909 165.603C124.897 171.872 103.557 177.038 85.8102 177.038C37.9668 177.038 0 147.449 0 91.8708Z" fill="#261F20"/>
<path d="M151.618 169.637L163.081 167.837C163.299 160.669 163.299 153.5 163.299 144.082V45.2602C163.299 35.6247 163.081 26.4392 162.848 16.571C158.353 15.0038 155.662 14.3366 151.167 13.4367C150.949 13.4367 150.716 9.61976 151.385 9.40254C166.441 5.58558 174.078 4.01846 185.525 0.666992C185.743 0.666992 187.547 1.78415 187.547 2.23411C187.547 4.2512 187.096 18.3708 187.096 21.7223V168.07C190.907 168.737 194.515 169.187 199.446 169.637C199.897 169.637 199.446 174.338 198.995 174.338H151.151C150.7 174.338 151.151 169.637 151.602 169.637H151.618Z" fill="#261F20"/>
<path d="M266.623 177.256C231.129 177.256 210.007 152.833 210.007 116.076C210.007 77.5339 231.798 51.7617 265.052 51.7617C298.306 51.7617 314.699 72.5998 313.797 108.225H234.053C234.722 143.182 251.349 160.886 273.357 160.886C295.366 160.886 305.709 152.601 312.895 145.867C314.015 144.749 314.248 148.551 313.564 150.351C308.4 161.103 291.991 177.24 266.607 177.24L266.623 177.256ZM234.053 101.506L288.196 99.4891C288.196 71.6999 280.108 58.2474 264.383 58.2474C248.658 58.2474 235.406 71.4671 234.053 101.491V101.506Z" fill="#261F20"/>
<path d="M326.583 148.132C326.583 130.878 337.362 124.16 349.945 120.126C356.228 117.891 369.48 114.074 381.161 108.923C387.896 106.006 392.391 102.872 392.391 96.1533V86.0678C392.391 66.1297 385.874 60.0784 367.676 60.0784C355.326 60.0784 342.743 67.2469 334.655 75.9824H333.302C332.633 75.9824 332.4 58.7285 333.302 58.2786C340.27 55.1443 354.875 51.7773 369.465 51.7773C396.87 51.7773 416.639 58.2786 416.639 83.6008V155.083C416.639 164.719 419.781 166.286 426.298 166.286C428.771 166.286 430.793 165.836 432.364 165.169C432.815 164.952 433.033 169.653 432.582 170.103C429.658 173.47 422.705 177.271 413.715 177.271C402.252 177.271 394.848 171.22 393.946 160.017C393.729 159.8 393.729 156.65 393.495 156.433H392.826C387.663 167.869 373.291 177.271 357.333 177.271C340.037 177.271 326.552 168.086 326.552 148.132H326.583ZM392.406 149.699V110.04C391.287 111.607 387.911 113.624 384.101 115.191C377.817 117.876 368.827 120.576 365.001 122.36C356.913 125.944 350.178 130.645 350.178 144.765C350.178 158.885 356.462 165.386 368.143 165.386C381.845 165.386 389.265 155.75 392.406 149.699Z" fill="#261F20"/>
<path d="M439.114 169.855L450.577 168.055C450.795 160.886 450.795 153.485 450.795 144.082V95.6723C450.795 86.0368 450.577 76.8513 450.344 66.9831C445.849 65.4159 443.158 64.7488 438.663 63.8488C438.445 63.8488 438.212 59.8146 438.881 59.5974C454.823 55.7805 458.65 54.6633 472.353 51.0791C472.57 51.0791 474.375 52.1963 474.375 52.6462L473.923 75.5014H475.043C481.109 63.8488 493.008 51.5291 506.493 51.5291C511.89 51.5291 515.032 52.1963 517.723 54.2133C518.392 54.8805 517.505 74.1515 517.272 74.1515H516.37C512.995 72.5844 508.282 70.7845 501.765 70.7845C491.888 70.7845 481.778 73.7015 475.028 82.887V168.039C478.838 168.706 484.236 169.156 488.948 169.839C489.399 169.839 488.948 174.54 488.497 174.54H438.632C438.181 174.54 438.632 169.839 439.083 169.839L439.114 169.855Z" fill="#261F20"/>
<path d="M526.277 169.637L537.74 167.837C537.958 160.669 537.958 153.5 537.958 144.082V45.2602C537.958 35.6247 537.74 26.4392 537.507 16.571C533.012 15.0038 530.321 14.3366 525.826 13.4367C525.608 13.4367 525.375 9.61976 526.044 9.40254C541.1 5.58558 548.737 4.01846 560.184 0.666992C560.402 0.666992 562.206 1.78415 562.206 2.23411C562.206 4.2512 561.755 18.3708 561.755 21.7223V168.07C565.566 168.737 569.175 169.187 574.105 169.637C574.556 169.637 574.105 174.338 573.654 174.338H525.811C525.36 174.338 525.811 169.637 526.262 169.637H526.277Z" fill="#261F20"/>
<path d="M584.449 169.637L595.912 167.837C596.13 160.669 596.13 153.5 596.13 144.082V95.4546C596.13 85.8191 595.912 76.6336 595.679 66.7654C591.184 65.1983 588.493 64.7483 583.998 63.6311C583.78 63.6311 583.547 59.597 584.216 59.597C599.272 56.0128 606.909 53.9957 618.356 51.0787C618.574 51.0787 620.378 51.9786 620.378 52.6458C620.378 54.4456 619.927 68.5497 619.927 72.134V168.039C623.738 168.706 627.113 169.156 632.059 169.606C632.51 169.606 632.059 174.307 631.608 174.307H583.982C583.531 174.307 583.982 169.606 584.434 169.606L584.449 169.637ZM593.89 21.2878C593.89 13.6694 600.174 7.61816 607.811 7.61816C615.448 7.61816 621.732 13.6694 621.732 21.2878C621.732 28.9062 615.448 34.9575 607.811 34.9575C600.174 34.9575 593.89 28.9062 593.89 21.2878V21.2878Z" fill="#261F20"/>
<path d="M689.577 227C651.61 227 632.074 214.447 632.074 196.976C632.074 185.541 637.238 178.823 641.733 175.471C643.755 174.121 655.887 177.488 655.436 178.155C651.843 181.957 647.799 188.008 647.799 196.976C647.799 212.446 662.171 219.831 689.359 219.831C719.238 219.831 740.795 210.196 740.795 195.409C740.795 183.089 734.729 181.522 721.026 180.39C712.036 179.722 697.882 179.272 684.413 178.373C663.524 176.805 655.887 169.854 655.887 156.867C655.887 147.682 660.833 141.181 669.808 136.246V135.347C653.632 128.845 641.733 113.841 641.733 94.7875C641.733 68.7981 665.546 51.3115 688.908 51.3115C701.491 51.3115 712.269 54.6785 719.689 60.947H721.711L749.785 51.0788C751.589 50.4116 752.04 68.7826 749.785 68.5654L726.641 66.0983C732.489 73.2667 735.849 84.4693 735.849 95.0048C735.849 120.777 714.058 139.148 688.908 139.148C684.413 139.148 679.918 138.481 675.874 137.364C672.498 139.831 670.476 142.748 670.476 146.782C670.476 151.933 673.852 155.3 687.103 156.2C701.708 157.317 714.058 158 722.815 158.667C740.78 159.784 754.482 164.051 754.482 186.906C754.482 209.762 729.767 227.015 689.561 227.015L689.577 227ZM713.156 95.0048C713.156 69.0154 703.279 58.2472 688.892 58.2472C674.505 58.2472 664.862 69.2326 664.862 94.772C664.862 120.311 674.303 131.964 688.892 131.964C703.482 131.964 713.156 120.529 713.156 94.9892V95.0048Z" fill="#261F20"/>
<path d="M759.413 169.637L770.876 167.837C771.094 160.669 771.094 153.5 771.094 144.082V44.3759C771.094 34.7405 770.876 25.555 770.643 15.6867C766.148 14.1196 763.457 13.6697 758.962 12.5525C758.744 12.5525 758.511 8.51832 759.18 8.51832C775.122 4.70137 779.4 3.58421 792.869 0C793.087 0 794.891 1.11716 794.891 1.56712V70.3653H795.56C806.572 59.38 824.77 51.9943 840.479 51.9943C860.699 51.9943 872.598 60.9626 872.598 85.6021V168.07C876.191 168.737 879.566 169.187 884.279 169.637C884.73 169.637 884.279 174.338 883.828 174.338H836.202C835.751 174.338 836.202 169.637 836.653 169.637L848.116 167.837C848.334 160.002 848.334 153.5 848.334 144.082V91.4362C848.334 73.9651 843.388 65.8967 827.212 65.8967C814.862 65.8967 802.279 70.3809 795.311 76.8821V168.086C799.122 168.753 802.046 169.203 806.992 169.653C807.443 169.653 806.992 174.354 806.541 174.354H758.915C758.464 174.354 758.915 169.653 759.366 169.653L759.413 169.637Z" fill="#261F20"/>
<path d="M907.672 146.332V64.5315H889.474C889.023 64.5315 888.572 61.3973 889.474 60.7146C898.464 54.2133 925.185 31.5754 927.441 29.1238C928.343 28.2239 932.387 29.1238 932.387 30.241C932.387 31.8081 931.718 52.6462 931.718 54.4461H967.212C968.332 54.4461 966.994 64.5315 965.859 64.5315H931.485V144.532C931.485 156.402 935.746 164.253 948.563 164.253C957.102 164.253 964.288 160.436 968.332 157.985C968.783 157.768 969.234 162.019 968.783 162.919C964.521 170.32 952.607 177.256 937.784 177.256C915.091 177.256 907.687 165.153 907.687 146.332H907.672Z" fill="#261F20"/>
<path d="M990.2 9.01465C1001.07 9.01465 1010 17.4244 1010 28.6735C1010 39.9226 1001.27 48.3324 990.2 48.3324C979.126 48.3324 970.4 40.1244 970.4 28.6735C970.4 17.2226 979.219 9.01465 990.2 9.01465V9.01465ZM990.2 45.8808C999.61 45.8808 1006.97 38.7434 1006.97 28.6735C1006.97 18.6036 999.61 11.4662 990.2 11.4662C980.79 11.4662 973.433 18.9915 973.433 28.6735C973.433 38.3555 980.79 45.8808 990.2 45.8808ZM1001.18 38.5417L995.209 38.34L989.92 29.4338C989.236 29.4338 988.443 29.4338 987.867 29.3407V36.866L990.029 37.0677C990.123 37.0677 990.029 38.4331 989.936 38.4331H981.008C981.008 38.4331 981.008 37.0677 981.101 37.0677L983.263 36.866V19.2863L981.008 19.0846C981.008 19.0846 981.008 17.7192 981.101 17.7192H989.329C995.115 17.7192 998.148 19.7673 998.148 22.9946C998.148 25.3375 996.671 27.2926 994.322 28.2701V28.3632C995.893 31.1095 997.06 33.2507 999.128 36.2919C999.626 36.9746 1000.4 37.0677 1001.18 37.1763C1001.27 37.1763 1001.27 38.5417 1001.18 38.5417V38.5417ZM987.852 27.9753C990.885 28.0684 993.731 26.9047 993.731 23.6773C993.731 20.7448 992.067 19.3794 987.852 19.3794V27.9908V27.9753Z" fill="#261F20"/>
</g>
<defs>
<clipPath id="clip0_700_17615">
<rect width="1010" height="227" fill="white"/>
</clipPath>
</defs>
</svg>
